<svg id="Kurgan" xmlns="http://www.w3.org/2000/svg" xmlns:xlink="http://www.w3.org/1999/xlink" width="186.579" height="30.059" viewBox="0 0 186.579 30.059">
  <defs>
    <clipPath id="clip-path">
      <rect id="Rectangle_1" data-name="Rectangle 1" width="186.579" height="30.059" fill="none"/>
    </clipPath>
  </defs>
  <g id="Group_2" data-name="Group 2" clip-path="url(#clip-path)">
    <path id="Path_4" data-name="Path 4" d="M301.913,22.273V4.919h5.4V22.273c0,4.9,3.155,7.058,7.723,7.058,4.526,0,7.639-2.159,7.639-7.058V4.919h5.4V22.273c0,8.469-5.9,12.207-13.078,12.207s-13.078-3.737-13.078-12.207" transform="translate(-271.315 -4.42)" fill="#0a1d18"/>
    <path id="Path_5" data-name="Path 5" d="M654.581,33.685v.29h-5.729l-7.141-10.586h-8.719V33.976h-5.4V4.913H643.08c5.523,0,9.84,3.778,9.84,9.258a8.883,8.883,0,0,1-5.812,8.511ZM632.992,18.614h9.632c2.782,0,4.9-1.661,4.9-4.359,0-2.741-2.117-4.4-4.9-4.4h-9.632Z" transform="translate(-563.99 -4.415)" fill="#0a1d18"/>
    <path id="Path_6" data-name="Path 6" d="M950.666,13.451V24.662a16.969,16.969,0,0,1-12.913,5.4c-10.213,0-16.025-6.85-16.025-14.947,0-8.3,5.978-15.112,15.445-15.112,6.1,0,10.877,2.947,13.036,7.431L945.6,9.923c-1.286-2.824-4.068-4.858-8.344-4.858-6.31,0-10.088,4.36-10.088,10.006,0,5.564,3.653,10.007,10.586,10.007a11.871,11.871,0,0,0,7.971-2.74V18.1H937.8V13.451Z" transform="translate(-828.313)" fill="#0a1d18"/>
    <path id="Path_7" data-name="Path 7" d="M1258.461,33.595v.375h-5.729l-2.449-5.729h-14.739l-2.491,5.729h-5.729v-.375l12.912-28.69h5.357Zm-10.255-10.213-5.314-12.29-5.273,12.29Z" transform="translate(-1102.936 -4.408)" fill="#0a1d18"/>
    <path id="Path_8" data-name="Path 8" d="M1605.377,4.911V33.974H1600.6l-16.4-20.22v20.22h-5.4V4.911h4.774l16.4,20.22V4.911Z" transform="translate(-1418.798 -4.413)" fill="#0a1d18"/>
  </g>
  <path id="Path_3" data-name="Path 3" d="M20.053,4.913,5.4,20.233V4.913H0V33.976H5.4V27.333l6.062-6.352,9.465,13H26.9v-.29L15.071,17.2,26.53,5.2v-.29Z" transform="translate(0 -4.415)" fill="#0a1d18"/>
</svg>
